<mxfile host="app.diagrams.net" modified="2021-01-07T20:39:41.337Z" agent="5.0 (Windows NT 10.0; Win64; x64) AppleWebKit/537.36 (KHTML, like Gecko) Chrome/87.0.4280.88 Safari/537.36 OPR/73.0.3856.284" etag="x0HV-1x-IN5ZPIli8UXs" version="14.1.5" type="github">
  <diagram name="Page-1" id="10a91c8b-09ff-31b1-d368-03940ed4cc9e">
    <mxGraphModel dx="2200" dy="1546" grid="1" gridSize="10" guides="1" tooltips="1" connect="1" arrows="1" fold="1" page="1" pageScale="1" pageWidth="1100" pageHeight="850" background="#ffffff" math="0" shadow="0">
      <root>
        <mxCell id="0" />
        <mxCell id="1" parent="0" />
        <mxCell id="62893188c0fa7362-2" value="&lt;span&gt;Grandpa Dan&lt;/span&gt;" style="whiteSpace=wrap;html=1;rounded=1;shadow=1;labelBackgroundColor=none;strokeWidth=1;fontFamily=Verdana;fontSize=12;align=center;fillColor=#003366;" parent="1" vertex="1">
          <mxGeometry x="430" y="170" width="120" height="60" as="geometry" />
        </mxCell>
        <mxCell id="62893188c0fa7362-3" value="&lt;span&gt;Grandma Karen&lt;/span&gt;" style="whiteSpace=wrap;html=1;rounded=1;shadow=1;labelBackgroundColor=none;strokeWidth=1;fontFamily=Verdana;fontSize=12;align=center;fillColor=#FF0000;" parent="1" vertex="1">
          <mxGeometry x="580" y="170" width="120" height="60" as="geometry" />
        </mxCell>
        <mxCell id="62893188c0fa7362-8" value="&lt;span&gt;Rachael&lt;/span&gt;" style="whiteSpace=wrap;html=1;rounded=1;shadow=1;labelBackgroundColor=none;strokeWidth=1;fontFamily=Verdana;fontSize=12;align=center;strokeColor=#6F0000;fontColor=#ffffff;fillColor=#FF0000;" parent="1" vertex="1">
          <mxGeometry x="440" y="350" width="120" height="60" as="geometry" />
        </mxCell>
        <mxCell id="62893188c0fa7362-9" value="&lt;span&gt;Travis&lt;/span&gt;" style="whiteSpace=wrap;html=1;rounded=1;shadow=1;labelBackgroundColor=none;strokeWidth=1;fontFamily=Verdana;fontSize=12;align=center;fillColor=#003366;" parent="1" vertex="1">
          <mxGeometry x="290" y="350" width="120" height="60" as="geometry" />
        </mxCell>
        <mxCell id="62893188c0fa7362-12" value="&lt;span&gt;Geoff&lt;/span&gt;" style="whiteSpace=wrap;html=1;rounded=1;shadow=1;labelBackgroundColor=none;strokeWidth=1;fontFamily=Verdana;fontSize=12;align=center;strokeColor=#006EAF;fontColor=#ffffff;fillColor=#003366;" parent="1" vertex="1">
          <mxGeometry x="620" y="350" width="120" height="60" as="geometry" />
        </mxCell>
        <mxCell id="62893188c0fa7362-17" value="No" style="rounded=0;html=1;labelBackgroundColor=none;startArrow=none;startFill=0;startSize=5;endArrow=none;endFill=0;endSize=5;jettySize=auto;orthogonalLoop=1;strokeWidth=1;fontFamily=Verdana;fontSize=12" parent="1" source="62893188c0fa7362-3" edge="1">
          <mxGeometry x="-0.1294" y="17" relative="1" as="geometry">
            <mxPoint as="offset" />
            <mxPoint x="953.793103448276" y="460" as="targetPoint" />
          </mxGeometry>
        </mxCell>
        <mxCell id="62893188c0fa7362-18" value="Yes" style="rounded=0;html=1;labelBackgroundColor=none;startArrow=none;startFill=0;startSize=5;endArrow=none;endFill=0;endSize=5;jettySize=auto;orthogonalLoop=1;strokeWidth=1;fontFamily=Verdana;fontSize=12" parent="1" source="62893188c0fa7362-8" target="62893188c0fa7362-12" edge="1">
          <mxGeometry x="-0.2168" y="-14" relative="1" as="geometry">
            <mxPoint as="offset" />
          </mxGeometry>
        </mxCell>
        <mxCell id="62893188c0fa7362-19" value="No" style="rounded=0;html=1;labelBackgroundColor=none;startArrow=none;startFill=0;startSize=5;endArrow=none;endFill=0;endSize=5;jettySize=auto;orthogonalLoop=1;strokeWidth=1;fontFamily=Verdana;fontSize=12" parent="1" source="62893188c0fa7362-8" edge="1">
          <mxGeometry x="-0.2842" y="12" relative="1" as="geometry">
            <mxPoint as="offset" />
            <mxPoint x="620" y="380" as="targetPoint" />
          </mxGeometry>
        </mxCell>
        <mxCell id="62893188c0fa7362-24" value="Yes" style="rounded=0;html=1;labelBackgroundColor=none;startArrow=none;startFill=0;startSize=5;endArrow=none;endFill=0;endSize=5;jettySize=auto;orthogonalLoop=1;strokeWidth=1;fontFamily=Verdana;fontSize=12" parent="1" source="62893188c0fa7362-12" edge="1">
          <mxGeometry x="0.1373" y="-16" relative="1" as="geometry">
            <mxPoint as="offset" />
            <mxPoint x="190" y="567.0909090909091" as="targetPoint" />
          </mxGeometry>
        </mxCell>
        <mxCell id="62893188c0fa7362-25" value="No" style="rounded=0;html=1;labelBackgroundColor=none;startArrow=none;startFill=0;startSize=5;endArrow=none;endFill=0;endSize=5;jettySize=auto;orthogonalLoop=1;strokeWidth=1;fontFamily=Verdana;fontSize=12" parent="1" source="62893188c0fa7362-12" edge="1">
          <mxGeometry x="0.1373" y="16" relative="1" as="geometry">
            <mxPoint as="offset" />
            <mxPoint x="362.8571428571429" y="560" as="targetPoint" />
          </mxGeometry>
        </mxCell>
        <mxCell id="62893188c0fa7362-26" value="Yes" style="rounded=0;html=1;labelBackgroundColor=none;startArrow=none;startFill=0;startSize=5;endArrow=none;endFill=0;endSize=5;jettySize=auto;orthogonalLoop=1;strokeWidth=1;fontFamily=Verdana;fontSize=12" parent="1" edge="1">
          <mxGeometry x="0.0033" y="-12" relative="1" as="geometry">
            <mxPoint as="offset" />
            <mxPoint x="650" y="410" as="sourcePoint" />
            <mxPoint x="500" y="560" as="targetPoint" />
          </mxGeometry>
        </mxCell>
        <mxCell id="62893188c0fa7362-27" value="No" style="rounded=0;html=1;labelBackgroundColor=none;startArrow=none;startFill=0;startSize=5;endArrow=none;endFill=0;endSize=5;jettySize=auto;orthogonalLoop=1;strokeWidth=1;fontFamily=Verdana;fontSize=12" parent="1" edge="1">
          <mxGeometry x="0.1373" y="16" relative="1" as="geometry">
            <mxPoint as="offset" />
            <mxPoint x="674.2857142857142" y="410" as="sourcePoint" />
            <mxPoint x="645.7142857142858" y="560" as="targetPoint" />
          </mxGeometry>
        </mxCell>
        <mxCell id="qcqcmLk27DPcm4zJ_nN5-4" value="" style="endArrow=none;html=1;strokeWidth=7;fillColor=#a0522d;strokeColor=#6D1F00;" edge="1" parent="1">
          <mxGeometry width="50" height="50" relative="1" as="geometry">
            <mxPoint x="570" y="260" as="sourcePoint" />
            <mxPoint x="570" y="200" as="targetPoint" />
          </mxGeometry>
        </mxCell>
        <mxCell id="qcqcmLk27DPcm4zJ_nN5-5" value="" style="endArrow=none;html=1;strokeWidth=7;entryX=0.49;entryY=-0.04;entryDx=0;entryDy=0;entryPerimeter=0;strokeColor=#CC5D1D;" edge="1" parent="1" target="62893188c0fa7362-12">
          <mxGeometry width="50" height="50" relative="1" as="geometry">
            <mxPoint x="570" y="260" as="sourcePoint" />
            <mxPoint x="690" y="280" as="targetPoint" />
          </mxGeometry>
        </mxCell>
        <mxCell id="qcqcmLk27DPcm4zJ_nN5-6" value="" style="endArrow=none;html=1;strokeWidth=7;fillColor=#e51400;strokeColor=#000066;" edge="1" parent="1">
          <mxGeometry width="50" height="50" relative="1" as="geometry">
            <mxPoint x="490" y="350" as="sourcePoint" />
            <mxPoint x="570" y="260" as="targetPoint" />
          </mxGeometry>
        </mxCell>
        <mxCell id="qcqcmLk27DPcm4zJ_nN5-7" value="" style="endArrow=none;html=1;strokeColor=#005700;strokeWidth=7;entryX=0;entryY=0.5;entryDx=0;entryDy=0;exitX=1;exitY=0.5;exitDx=0;exitDy=0;fillColor=#008a00;" edge="1" parent="1" source="62893188c0fa7362-9" target="62893188c0fa7362-8">
          <mxGeometry width="50" height="50" relative="1" as="geometry">
            <mxPoint x="370" y="430" as="sourcePoint" />
            <mxPoint x="420" y="380" as="targetPoint" />
          </mxGeometry>
        </mxCell>
        <mxCell id="qcqcmLk27DPcm4zJ_nN5-8" value="" style="endArrow=none;html=1;strokeWidth=7;fillColor=#a0522d;strokeColor=#6D1F00;" edge="1" parent="1">
          <mxGeometry width="50" height="50" relative="1" as="geometry">
            <mxPoint x="430" y="430" as="sourcePoint" />
            <mxPoint x="429.52" y="380" as="targetPoint" />
          </mxGeometry>
        </mxCell>
        <mxCell id="qcqcmLk27DPcm4zJ_nN5-9" value="&lt;span&gt;Sophie&lt;/span&gt;" style="whiteSpace=wrap;html=1;rounded=1;shadow=1;labelBackgroundColor=none;strokeWidth=1;fontFamily=Verdana;fontSize=12;align=center;fillColor=#FF0000;" vertex="1" parent="1">
          <mxGeometry x="290" y="545" width="120" height="60" as="geometry" />
        </mxCell>
        <mxCell id="qcqcmLk27DPcm4zJ_nN5-10" value="&lt;span&gt;Grandma Vicky&lt;/span&gt;" style="whiteSpace=wrap;html=1;rounded=1;shadow=1;labelBackgroundColor=none;strokeWidth=1;fontFamily=Verdana;fontSize=12;align=center;fillColor=#FF0000;" vertex="1" parent="1">
          <mxGeometry x="120" y="170" width="120" height="60" as="geometry" />
        </mxCell>
        <mxCell id="qcqcmLk27DPcm4zJ_nN5-11" value="Aunt&amp;nbsp; Connie" style="whiteSpace=wrap;html=1;rounded=1;shadow=1;labelBackgroundColor=none;strokeWidth=1;fontFamily=Verdana;fontSize=12;align=center;fillColor=#FF0000;" vertex="1" parent="1">
          <mxGeometry x="-80" y="170" width="120" height="60" as="geometry" />
        </mxCell>
        <mxCell id="qcqcmLk27DPcm4zJ_nN5-12" value="&lt;span&gt;Ryan&lt;/span&gt;" style="whiteSpace=wrap;html=1;rounded=1;shadow=1;labelBackgroundColor=none;strokeWidth=1;fontFamily=Verdana;fontSize=12;align=center;strokeColor=#001DBC;fontColor=#ffffff;fillColor=#003366;" vertex="1" parent="1">
          <mxGeometry x="10" y="350" width="120" height="60" as="geometry" />
        </mxCell>
        <mxCell id="qcqcmLk27DPcm4zJ_nN5-13" value="&lt;span&gt;Kolby&lt;/span&gt;" style="whiteSpace=wrap;html=1;rounded=1;shadow=1;labelBackgroundColor=none;strokeWidth=1;fontFamily=Verdana;fontSize=12;align=center;fillColor=#003366;" vertex="1" parent="1">
          <mxGeometry x="450" y="545" width="120" height="60" as="geometry" />
        </mxCell>
        <mxCell id="qcqcmLk27DPcm4zJ_nN5-14" value="" style="endArrow=none;html=1;strokeWidth=7;fillColor=#e51400;strokeColor=#000066;" edge="1" parent="1">
          <mxGeometry width="50" height="50" relative="1" as="geometry">
            <mxPoint x="350" y="550" as="sourcePoint" />
            <mxPoint x="430" y="420" as="targetPoint" />
          </mxGeometry>
        </mxCell>
        <mxCell id="qcqcmLk27DPcm4zJ_nN5-15" value="" style="endArrow=none;html=1;strokeWidth=7;entryX=0.556;entryY=0.025;entryDx=0;entryDy=0;entryPerimeter=0;strokeColor=#CC5D1D;" edge="1" parent="1" target="qcqcmLk27DPcm4zJ_nN5-13">
          <mxGeometry width="50" height="50" relative="1" as="geometry">
            <mxPoint x="430" y="427.4000000000001" as="sourcePoint" />
            <mxPoint x="538.8" y="455" as="targetPoint" />
          </mxGeometry>
        </mxCell>
        <mxCell id="qcqcmLk27DPcm4zJ_nN5-16" value="&lt;span&gt;Grandma G.G&lt;/span&gt;" style="whiteSpace=wrap;html=1;rounded=1;shadow=1;labelBackgroundColor=none;strokeWidth=1;fontFamily=Verdana;fontSize=12;align=center;fillColor=#FF0000;" vertex="1" parent="1">
          <mxGeometry x="160" y="-40" width="120" height="60" as="geometry" />
        </mxCell>
        <mxCell id="qcqcmLk27DPcm4zJ_nN5-17" value="Grandad Charles &quot;Tom&quot; Stewart" style="whiteSpace=wrap;html=1;rounded=1;shadow=1;labelBackgroundColor=none;strokeWidth=1;fontFamily=Verdana;fontSize=12;align=center;fillColor=#003366;" vertex="1" parent="1">
          <mxGeometry x="20" y="-40" width="120" height="60" as="geometry" />
        </mxCell>
        <mxCell id="qcqcmLk27DPcm4zJ_nN5-18" value="&lt;span&gt;Great Grandpa Arthur&amp;nbsp;&lt;/span&gt;" style="whiteSpace=wrap;html=1;rounded=1;shadow=1;labelBackgroundColor=none;strokeWidth=1;fontFamily=Verdana;fontSize=12;align=center;fillColor=#003366;" vertex="1" parent="1">
          <mxGeometry x="290" y="-110" width="120" height="60" as="geometry" />
        </mxCell>
        <mxCell id="qcqcmLk27DPcm4zJ_nN5-19" value="&lt;span&gt;Great Grandpa Virgil&lt;/span&gt;" style="whiteSpace=wrap;html=1;rounded=1;shadow=1;labelBackgroundColor=none;strokeWidth=1;fontFamily=Verdana;fontSize=12;align=center;fillColor=#003366;" vertex="1" parent="1">
          <mxGeometry x="640" y="-160" width="120" height="60" as="geometry" />
        </mxCell>
        <mxCell id="qcqcmLk27DPcm4zJ_nN5-218" value="&lt;span&gt;Great Grandma Wanda&lt;/span&gt;" style="whiteSpace=wrap;html=1;rounded=1;shadow=1;labelBackgroundColor=none;strokeWidth=1;fontFamily=Verdana;fontSize=12;align=center;fillColor=#FF0000;" vertex="1" parent="1">
          <mxGeometry x="420" y="-110" width="120" height="60" as="geometry" />
        </mxCell>
        <mxCell id="qcqcmLk27DPcm4zJ_nN5-220" value="Kitty" style="ellipse;whiteSpace=wrap;html=1;aspect=fixed;fillColor=#4C0099;" vertex="1" parent="1">
          <mxGeometry x="870" y="350" width="80" height="80" as="geometry" />
        </mxCell>
        <mxCell id="qcqcmLk27DPcm4zJ_nN5-222" value="Xena" style="ellipse;whiteSpace=wrap;html=1;aspect=fixed;fillColor=#FF00FF;" vertex="1" parent="1">
          <mxGeometry x="600" y="535" width="80" height="80" as="geometry" />
        </mxCell>
        <mxCell id="qcqcmLk27DPcm4zJ_nN5-223" value="Harley" style="ellipse;whiteSpace=wrap;html=1;aspect=fixed;fillColor=#FF00FF;" vertex="1" parent="1">
          <mxGeometry x="200" y="530" width="80" height="80" as="geometry" />
        </mxCell>
        <mxCell id="qcqcmLk27DPcm4zJ_nN5-225" value="Brandy" style="ellipse;whiteSpace=wrap;html=1;aspect=fixed;strokeColor=#A50040;fontColor=#ffffff;fillColor=#FF00FF;" vertex="1" parent="1">
          <mxGeometry x="770" y="350" width="80" height="80" as="geometry" />
        </mxCell>
        <mxCell id="qcqcmLk27DPcm4zJ_nN5-226" value="Missy" style="ellipse;whiteSpace=wrap;html=1;aspect=fixed;fillColor=#4C0099;" vertex="1" parent="1">
          <mxGeometry x="200" y="340" width="80" height="80" as="geometry" />
        </mxCell>
        <mxCell id="qcqcmLk27DPcm4zJ_nN5-227" value="&lt;span&gt;Great Grandma Viola&lt;/span&gt;" style="whiteSpace=wrap;html=1;rounded=1;shadow=1;labelBackgroundColor=none;strokeWidth=1;fontFamily=Verdana;fontSize=12;align=center;fillColor=#FF0000;" vertex="1" parent="1">
          <mxGeometry x="770" y="-160" width="120" height="60" as="geometry" />
        </mxCell>
        <mxCell id="qcqcmLk27DPcm4zJ_nN5-228" value="&lt;span&gt;Great Uncle Dave&lt;/span&gt;" style="whiteSpace=wrap;html=1;rounded=1;shadow=1;labelBackgroundColor=none;strokeWidth=1;fontFamily=Verdana;fontSize=12;align=center;fillColor=#003366;" vertex="1" parent="1">
          <mxGeometry x="430" y="30" width="120" height="60" as="geometry" />
        </mxCell>
        <mxCell id="qcqcmLk27DPcm4zJ_nN5-229" value="" style="endArrow=none;html=1;strokeColor=#005700;strokeWidth=7;entryX=0;entryY=0.5;entryDx=0;entryDy=0;exitX=1;exitY=0.5;exitDx=0;exitDy=0;fillColor=#008a00;" edge="1" parent="1">
          <mxGeometry width="50" height="50" relative="1" as="geometry">
            <mxPoint x="550" y="200" as="sourcePoint" />
            <mxPoint x="580" y="200" as="targetPoint" />
            <Array as="points" />
          </mxGeometry>
        </mxCell>
        <mxCell id="qcqcmLk27DPcm4zJ_nN5-230" value="&lt;span&gt;Great Aunt &lt;br&gt;Cindy Clark&lt;/span&gt;" style="whiteSpace=wrap;html=1;rounded=1;shadow=1;labelBackgroundColor=none;strokeWidth=1;fontFamily=Verdana;fontSize=12;align=center;fillColor=#FF0000;" vertex="1" parent="1">
          <mxGeometry x="430" y="100" width="120" height="60" as="geometry" />
        </mxCell>
        <mxCell id="qcqcmLk27DPcm4zJ_nN5-231" value="&lt;span&gt;Papa James&lt;/span&gt;" style="whiteSpace=wrap;html=1;rounded=1;shadow=1;labelBackgroundColor=none;strokeWidth=1;fontFamily=Verdana;fontSize=12;align=center;fillColor=#003366;" vertex="1" parent="1">
          <mxGeometry x="270" y="170" width="120" height="60" as="geometry" />
        </mxCell>
        <mxCell id="qcqcmLk27DPcm4zJ_nN5-232" value="&lt;span&gt;Great Uncle Tom Query&lt;/span&gt;" style="whiteSpace=wrap;html=1;rounded=1;shadow=1;labelBackgroundColor=none;strokeWidth=1;fontFamily=Verdana;fontSize=12;align=center;fillColor=#003366;" vertex="1" parent="1">
          <mxGeometry x="580" y="100" width="120" height="60" as="geometry" />
        </mxCell>
        <mxCell id="qcqcmLk27DPcm4zJ_nN5-233" value="&lt;span&gt;Great Aunt Lorrie Query&lt;/span&gt;" style="whiteSpace=wrap;html=1;rounded=1;shadow=1;labelBackgroundColor=none;strokeWidth=1;fontFamily=Verdana;fontSize=12;align=center;fillColor=#FF0000;" vertex="1" parent="1">
          <mxGeometry x="720" y="100" width="120" height="60" as="geometry" />
        </mxCell>
        <mxCell id="qcqcmLk27DPcm4zJ_nN5-234" value="Molly" style="ellipse;whiteSpace=wrap;html=1;aspect=fixed;fillColor=#FF00FF;" vertex="1" parent="1">
          <mxGeometry x="-60" width="80" height="80" as="geometry" />
        </mxCell>
        <mxCell id="qcqcmLk27DPcm4zJ_nN5-235" value="" style="endArrow=none;html=1;strokeColor=#005700;strokeWidth=7;entryX=0;entryY=0.5;entryDx=0;entryDy=0;exitX=1;exitY=0.5;exitDx=0;exitDy=0;fillColor=#008a00;" edge="1" parent="1">
          <mxGeometry width="50" height="50" relative="1" as="geometry">
            <mxPoint x="750" y="-130.42000000000002" as="sourcePoint" />
            <mxPoint x="780" y="-130.42000000000002" as="targetPoint" />
            <Array as="points" />
          </mxGeometry>
        </mxCell>
        <mxCell id="qcqcmLk27DPcm4zJ_nN5-236" value="&lt;span&gt;Great Uncle Dan Query&lt;/span&gt;" style="whiteSpace=wrap;html=1;rounded=1;shadow=1;labelBackgroundColor=none;strokeWidth=1;fontFamily=Verdana;fontSize=12;align=center;fillColor=#003366;" vertex="1" parent="1">
          <mxGeometry x="580" y="30" width="120" height="60" as="geometry" />
        </mxCell>
        <mxCell id="qcqcmLk27DPcm4zJ_nN5-237" value="&lt;span&gt;Great Uncle Dan Query&lt;/span&gt;" style="whiteSpace=wrap;html=1;rounded=1;shadow=1;labelBackgroundColor=none;strokeWidth=1;fontFamily=Verdana;fontSize=12;align=center;fillColor=#003366;" vertex="1" parent="1">
          <mxGeometry x="580" y="-50" width="120" height="60" as="geometry" />
        </mxCell>
        <mxCell id="qcqcmLk27DPcm4zJ_nN5-238" value="&lt;span&gt;Sophie&lt;/span&gt;" style="whiteSpace=wrap;html=1;rounded=1;shadow=1;labelBackgroundColor=none;strokeWidth=1;fontFamily=Verdana;fontSize=12;align=center;fillColor=#FF0000;" vertex="1" parent="1">
          <mxGeometry x="300" y="555" width="120" height="60" as="geometry" />
        </mxCell>
      </root>
    </mxGraphModel>
  </diagram>
</mxfile>
